<svg xmlns="http://www.w3.org/2000/svg" width="512" height="512" viewBox="0 0 512 512" role="img" aria-label="GO2CUP">
<rect x="16" y="16" width="480" height="480" rx="108" fill="#07180e"/>
<path d="M256,452 C206,372 132,322 132,196 A124,124 0 1 1 380,196 C380,322 306,372 256,452 Z" fill="#2f80ff"/>
<circle cx="256" cy="196" r="104" fill="#f5c518"/>
<circle cx="256" cy="196" r="90" fill="#ffffff"/>
<g stroke="#0a2413" stroke-width="7" stroke-linecap="round">
<line x1="256.0" y1="172.0" x2="256.0" y2="139.0"/>
<line x1="278.8" y1="188.6" x2="310.2" y2="178.4"/>
<line x1="270.1" y1="215.4" x2="289.5" y2="242.1"/>
<line x1="241.9" y1="215.4" x2="222.5" y2="242.1"/>
<line x1="233.2" y1="188.6" x2="201.8" y2="178.4"/>
</g>
<polygon points="256.0,172.0 278.8,188.6 270.1,215.4 241.9,215.4 233.2,188.6" fill="#2f80ff"/>
<polygon points="256.0,124.6 269.7,134.6 264.5,150.6 247.5,150.6 242.3,134.6" fill="#21c25a"/>
<polygon points="310.2,164.0 323.9,173.9 318.7,190.0 301.7,190.0 296.5,173.9" fill="#ff4338"/>
<polygon points="289.5,227.7 303.2,237.7 298.0,253.8 281.0,253.8 275.8,237.7" fill="#f5c518"/>
<polygon points="222.5,227.7 236.2,237.7 231.0,253.8 214.0,253.8 208.8,237.7" fill="#2f80ff"/>
<polygon points="201.8,164.0 215.5,173.9 210.3,190.0 193.3,190.0 188.1,173.9" fill="#21c25a"/>
</svg>